<svg width="13" height="13" viewBox="0 0 13 13" fill="none" xmlns="http://www.w3.org/2000/svg">
<path fill-rule="evenodd" clip-rule="evenodd" d="M1 6.48238C1 9.51033 3.45454 11.9649 6.48238 11.9649C9.51022 11.9649 11.9648 9.51033 11.9648 6.48238C11.9648 3.45454 9.51022 1 6.48238 1C3.45454 1 1 3.45454 1 6.48238Z" stroke="#161616" stroke-width="1.35" stroke-linecap="round" stroke-linejoin="round"/>
<path fill-rule="evenodd" clip-rule="evenodd" d="M4.33838 6.6006C4.33838 7.78481 5.29834 8.74477 6.48243 8.74477C7.66665 8.74477 8.62649 7.78481 8.62649 6.6006C8.62649 5.4165 7.66665 4.45654 6.48243 4.45654C5.29834 4.45654 4.33838 5.4165 4.33838 6.6006Z" stroke="#161616" stroke-width="1.35" stroke-linecap="round" stroke-linejoin="round"/>
<path d="M3.06982 10.5008C3.06982 9.56392 4.59764 8.80444 6.48219 8.80444C8.36686 8.80444 9.89456 9.56392 9.89456 10.5008" stroke="#161616" stroke-width="1.35" stroke-linecap="round" stroke-linejoin="round"/>
</svg>
