<svg width="13" height="12" viewBox="0 0 13 12" fill="currentColor" xmlns="http://www.w3.org/2000/svg">
    <path fill="currentColor" d="M9.78532 11.9986C9.91009 11.9881 10.0248 11.9236 10.1001 11.8215C10.1754 11.7195 10.2035 11.5899 10.1782 11.4656L9.40482 7.64658L12.2414 5.01752V5.01694C12.3685 4.89965 12.4162 4.71726 12.3634 4.5513C12.31 4.38591 12.1667 4.26688 11.9958 4.24694L8.17793 3.81181L6.59135 0.261555C6.5211 0.102043 6.36485 0 6.19231 0C6.01977 0 5.86351 0.102041 5.79327 0.261555L4.20669 3.81181L0.388786 4.24694C0.217927 4.26688 0.0746063 4.38593 0.0212118 4.5513C-0.0316201 4.71726 0.0161535 4.89964 0.143175 5.01694L2.9798 7.646L2.20644 11.465V11.4656C2.17215 11.6362 2.23903 11.8116 2.37786 11.9142C2.51668 12.0162 2.70215 12.0268 2.85166 11.9406L6.19245 10.0153L9.53323 11.9406C9.60967 11.9852 9.69791 12.0057 9.78559 11.9986H9.78532Z"/>
</svg>
